<svg width="1556" height="652" viewBox="0 0 1556 652" fill="none" xmlns="http://www.w3.org/2000/svg">
<path opacity="0.0946098" d="M309.911 565.883L375.4 438.221C379.457 430.312 378.987 420.804 374.161 413.333L296.186 292.722C291.332 285.237 282.867 280.894 273.983 281.333L130.533 288.356C121.636 288.822 113.654 293.959 109.597 301.868L44.108 429.53C40.0508 437.439 40.5203 446.947 45.3464 454.418L123.322 575.029C128.148 582.5 136.614 586.843 145.524 586.419L288.974 579.395C297.857 578.957 305.854 573.792 309.911 565.883Z" fill="url(#paint0_linear_657_2)"/>
<path opacity="0.0946098" d="M1243.26 94.4692L1213.05 234.731C1211.18 243.421 1214.09 252.483 1220.69 258.45L1327.22 354.77C1333.85 360.744 1343.15 362.747 1351.61 360.025L1488.36 316.113C1496.83 313.361 1503.21 306.332 1505.08 297.643L1535.3 157.381C1537.17 148.691 1534.26 139.629 1527.66 133.662L1421.13 37.3419C1414.53 31.3748 1405.23 29.371 1396.73 32.0869L1259.99 75.9988C1251.52 78.7212 1245.14 85.7796 1243.26 94.4692Z" fill="url(#paint1_linear_657_2)"/>
<path opacity="0.0946098" d="M496.403 577.839L528.161 515.931C530.134 512.085 529.904 507.489 527.552 503.871L489.741 445.375C487.388 441.756 483.292 439.655 478.981 439.855L409.411 443.267C405.1 443.467 401.219 445.989 399.261 449.807L367.503 511.715C365.53 515.561 365.759 520.157 368.112 523.775L405.923 582.271C408.276 585.89 412.372 587.991 416.683 587.791L486.253 584.379C490.536 584.165 494.445 581.657 496.403 577.839Z" fill="url(#paint2_linear_657_2)"/>
<path opacity="0.0946098" d="M1060.03 131.188L1045.38 199.207C1044.47 203.432 1045.88 207.812 1049.09 210.698L1100.75 257.415C1103.96 260.301 1108.46 261.27 1112.57 259.962L1178.89 238.66C1183 237.351 1186.1 233.911 1187 229.716L1201.65 161.697C1202.56 157.472 1201.15 153.092 1197.94 150.206L1146.28 103.489C1143.07 100.603 1138.57 99.6336 1134.46 100.942L1068.14 122.244C1064.06 123.559 1060.93 126.993 1060.03 131.188Z" fill="url(#paint3_linear_657_2)"/>
<path opacity="0.0946098" d="M444.286 410.586L459.34 381.241C460.277 379.413 460.148 377.245 459.067 375.52L441.141 347.79C440.019 346.078 438.08 345.083 436.034 345.171L403.055 346.786C401.009 346.874 399.186 348.074 398.249 349.902L383.195 379.247C382.258 381.074 382.388 383.242 383.469 384.968L401.394 412.697C402.516 414.41 404.455 415.404 406.501 415.317L439.48 413.701C441.513 413.572 443.349 412.413 444.286 410.586Z" fill="url(#paint4_linear_657_2)"/>
<path opacity="0.0946098" d="M1153.66 279.254L1146.71 311.495C1146.28 313.503 1146.97 315.563 1148.46 316.95L1172.95 339.095C1174.48 340.459 1176.61 340.918 1178.56 340.304L1210 330.207C1211.95 329.594 1213.4 327.962 1213.84 325.954L1220.78 293.713C1221.21 291.705 1220.53 289.645 1219.04 288.258L1194.54 266.113C1193.02 264.749 1190.89 264.29 1188.93 264.904L1157.5 275.001C1155.57 275.651 1154.09 277.246 1153.66 279.254Z" fill="url(#paint5_linear_657_2)"/>
<defs>
<linearGradient id="paint0_linear_657_2" x1="286.599" y1="284.062" x2="132.89" y2="583.698" gradientUnits="userSpaceOnUse">
<stop stop-color="#D4145A"/>
<stop offset="1" stop-color="#2E3192"/>
</linearGradient>
<linearGradient id="paint1_linear_657_2" x1="1338.72" y1="360.654" x2="1409.64" y2="31.445" gradientUnits="userSpaceOnUse">
<stop stop-color="#D4145A"/>
<stop offset="1" stop-color="#2E3192"/>
</linearGradient>
<linearGradient id="paint2_linear_657_2" x1="485.095" y1="441.121" x2="410.537" y2="586.462" gradientUnits="userSpaceOnUse">
<stop stop-color="#D4145A"/>
<stop offset="1" stop-color="#2E3192"/>
</linearGradient>
<linearGradient id="paint3_linear_657_2" x1="1106.34" y1="260.321" x2="1140.74" y2="100.635" gradientUnits="userSpaceOnUse">
<stop stop-color="#D4145A"/>
<stop offset="1" stop-color="#2E3192"/>
</linearGradient>
<linearGradient id="paint4_linear_657_2" x1="438.927" y1="345.793" x2="403.589" y2="414.679" gradientUnits="userSpaceOnUse">
<stop stop-color="#D4145A"/>
<stop offset="1" stop-color="#2E3192"/>
</linearGradient>
<linearGradient id="paint5_linear_657_2" x1="1175.61" y1="340.451" x2="1191.91" y2="264.766" gradientUnits="userSpaceOnUse">
<stop stop-color="#D4145A"/>
<stop offset="1" stop-color="#2E3192"/>
</linearGradient>
</defs>
</svg>
