<svg width="19" height="19" viewBox="0 0 19 19" fill="none" xmlns="http://www.w3.org/2000/svg">
<g clip-path="url(#clip0_74_24)">
<path opacity="0.0946098" d="M14.4784 4.88633L9.2587 2.34559C8.94083 2.18795 8.55006 2.21702 8.24783 2.41733L3.39703 5.67317C3.0948 5.87348 2.93002 6.22154 2.94566 6.57948L3.31458 12.3761C3.33656 12.7425 3.5562 13.053 3.87407 13.2106L9.09379 15.7514C9.41167 15.909 9.80243 15.8799 10.1047 15.6796L14.9555 12.4238C15.2577 12.2235 15.4225 11.8754 15.4068 11.5175L15.0379 5.7209C15.0223 5.36296 14.8111 5.04602 14.4784 4.88633Z" fill="url(#paint0_linear_74_24)"/>
</g>
<defs>
<linearGradient id="paint0_linear_74_24" x1="3.05553" y1="6.06618" x2="15.2702" y2="12.1122" gradientUnits="userSpaceOnUse">
<stop stop-color="#D4145A"/>
<stop offset="1" stop-color="#2E3192"/>
</linearGradient>
<clipPath id="clip0_74_24">
<rect width="13.7017" height="12.3465" fill="white" transform="translate(0 8.22192) rotate(-36.8746)"/>
</clipPath>
</defs>
</svg>
